<svg xmlns="http://www.w3.org/2000/svg"  viewBox="0 0 48 48" width="48px" height="48px"><path d="M 24 4 C 12.986275 4 4 12.986275 4 24 C 4 27.328459 4.9050143 30.342871 6.2246094 33.064453 L 4.0566406 40.794922 A 1.50015 1.50015 0 0 0 4.0449219 40.835938 C 3.5952528 42.634614 5.3653864 44.404747 7.1640625 43.955078 A 1.50015 1.50015 0 0 0 7.2050781 43.943359 L 14.933594 41.777344 C 17.686536 43.180474 20.711029 44 24 44 C 35.013725 44 44 35.013725 44 24 C 44 12.986275 35.013725 4 24 4 z M 24 7 C 33.386275 7 41 14.613725 41 24 C 41 33.386275 33.386275 41 24 41 C 20.942424 41 18.2141 40.269552 15.728516 38.888672 A 1.50015 1.50015 0 0 0 14.595703 38.755859 L 7.1582031 40.841797 L 9.2441406 33.404297 A 1.50015 1.50015 0 0 0 9.1308594 32.308594 C 7.8189417 29.778467 7 27.027273 7 24 C 7 14.613725 14.613725 7 24 7 z M 17.400391 15.099609 C 17.100391 15.099609 16.499609 15.199219 16.099609 15.699219 C 15.599609 16.199219 14.400391 17.399219 14.400391 19.699219 C 14.400391 21.999219 16.100781 24.299609 16.300781 24.599609 C 16.600781 24.899609 19.6 29.900781 24.5 31.800781 C 28.5 33.400781 29.299219 33.1 30.199219 33 C 31.099219 32.9 33.000391 31.799219 33.400391 30.699219 C 33.800391 29.499219 33.800781 28.6 33.800781 28.5 C 33.700781 28.3 33.400391 28.100391 32.900391 27.900391 C 32.400391 27.600391 29.999609 26.500781 29.599609 26.300781 C 29.099609 26.100781 28.8 26 28.5 26.5 C 28.2 27 27.3 28.100391 27 28.400391 C 26.8 28.700391 26.5 28.7 26 28.5 C 25.6 28.2 23.999219 27.699609 22.199219 26.099609 C 20.699219 24.799609 19.8 23.300781 19.5 22.800781 C 19.2 22.300781 19.499219 22.000781 19.699219 21.800781 C 19.899219 21.600781 20.200391 21.3 20.400391 21 C 20.700391 20.7 20.700391 20.499219 20.900391 20.199219 C 21.100391 19.899219 21.000391 19.600391 20.900391 19.400391 C 20.800391 19.200391 19.800391 16.800391 19.400391 15.900391 C 19.000391 15.100391 18.600781 15.099609 18.300781 15.099609 L 17.400391 15.099609 z"/></svg>